<svg width="25" height="24" viewBox="0 0 25 24" fill="none" xmlns="http://www.w3.org/2000/svg">
<path d="M9.64373 20.2821V17.2152C9.64372 16.4381 10.2757 15.8067 11.0584 15.8018H13.9326C14.7189 15.8018 15.3563 16.4346 15.3563 17.2152V20.2732C15.3562 20.9473 15.904 21.4951 16.5829 21.5H18.5438C19.4596 21.5023 20.3388 21.1428 20.9872 20.5007C21.6356 19.8586 22 18.9868 22 18.0775V9.36585C22 8.63139 21.6721 7.93471 21.1046 7.4635L14.443 2.17427C13.2785 1.24912 11.6154 1.27901 10.4854 2.24538L3.96701 7.4635C3.37274 7.92082 3.01755 8.61956 3 9.36585V18.0686C3 19.9637 4.54738 21.5 6.45617 21.5H8.37229C8.69917 21.5023 9.01349 21.3751 9.24547 21.1464C9.47746 20.9178 9.60793 20.6067 9.60792 20.2821H9.64373Z" fill="#00D154"/>
</svg>
