<svg width="144" height="163" viewBox="0 0 144 163" fill="none" xmlns="http://www.w3.org/2000/svg">
<g filter="url(#filter0_bdddddd_61_660)">
<rect x="25" y="16.7873" width="27.1136" height="27.4254" rx="13.5" fill="#00D154"/>
<path d="M42.8026 31.0598C42.8254 30.877 42.8426 30.6942 42.8426 30.5C42.8426 30.3058 42.8254 30.123 42.8026 29.9402L44.008 28.9976C44.1165 28.9119 44.1451 28.7576 44.0765 28.632L42.934 26.6554C42.8654 26.5297 42.7112 26.484 42.5855 26.5297L41.163 27.101C40.866 26.8725 40.5461 26.6839 40.1976 26.5411L39.9805 25.0273C39.9634 24.8902 39.8434 24.7873 39.7006 24.7873H37.4155C37.2727 24.7873 37.1527 24.8902 37.1356 25.0273L36.9185 26.5411C36.57 26.6839 36.2501 26.8782 35.9531 27.101L34.5306 26.5297C34.3992 26.4783 34.2507 26.5297 34.1821 26.6554L33.0396 28.632C32.9653 28.7576 32.9996 28.9119 33.1082 28.9976L34.3135 29.9402C34.2907 30.123 34.2735 30.3115 34.2735 30.5C34.2735 30.6885 34.2907 30.877 34.3135 31.0598L33.1082 32.0024C32.9996 32.0881 32.9711 32.2424 33.0396 32.368L34.1821 34.3446C34.2507 34.4703 34.4049 34.516 34.5306 34.4703L35.9531 33.899C36.2501 34.1276 36.57 34.3161 36.9185 34.4589L37.1356 35.9727C37.1527 36.1099 37.2727 36.2127 37.4155 36.2127H39.7006C39.8434 36.2127 39.9634 36.1099 39.9805 35.9727L40.1976 34.4589C40.5461 34.3161 40.866 34.1218 41.163 33.899L42.5855 34.4703C42.7169 34.5217 42.8654 34.4703 42.934 34.3446L44.0765 32.368C44.1451 32.2424 44.1165 32.0881 44.008 32.0024L42.8026 31.0598ZM38.5581 32.4994C37.4555 32.4994 36.5586 31.6025 36.5586 30.5C36.5586 29.3975 37.4555 28.5006 38.5581 28.5006C39.6606 28.5006 40.5575 29.3975 40.5575 30.5C40.5575 31.6025 39.6606 32.4994 38.5581 32.4994Z" fill="white"/>
<rect x="25.135" y="16.9223" width="26.8436" height="27.1554" rx="13.365" stroke="white" stroke-width="0.27"/>
</g>
<defs>
<filter id="filter0_bdddddd_61_660" x="-66.26" y="-47.4727" width="209.634" height="209.945" filterUnits="userSpaceOnUse" color-interpolation-filters="sRGB">
<feFlood flood-opacity="0" result="BackgroundImageFix"/>
<feGaussianBlur in="BackgroundImageFix" stdDeviation="0.54"/>
<feComposite in2="SourceAlpha" operator="in" result="effect1_backgroundBlur_61_660"/>
<feColorMatrix in="SourceAlpha" type="matrix" values="0 0 0 0 0 0 0 0 0 0 0 0 0 0 0 0 0 0 127 0" result="hardAlpha"/>
<feOffset dy="1.3572"/>
<feGaussianBlur stdDeviation="1.34511"/>
<feColorMatrix type="matrix" values="0 0 0 0 0 0 0 0 0 0 0 0 0 0 0 0 0 0 0.0144041 0"/>
<feBlend mode="normal" in2="effect1_backgroundBlur_61_660" result="effect2_dropShadow_61_660"/>
<feColorMatrix in="SourceAlpha" type="matrix" values="0 0 0 0 0 0 0 0 0 0 0 0 0 0 0 0 0 0 127 0" result="hardAlpha"/>
<feOffset dy="2.85921"/>
<feGaussianBlur stdDeviation="3.17471"/>
<feColorMatrix type="matrix" values="0 0 0 0 0 0 0 0 0 0 0 0 0 0 0 0 0 0 0.025871 0"/>
<feBlend mode="normal" in2="effect2_dropShadow_61_660" result="effect3_dropShadow_61_660"/>
<feColorMatrix in="SourceAlpha" type="matrix" values="0 0 0 0 0 0 0 0 0 0 0 0 0 0 0 0 0 0 127 0" result="hardAlpha"/>
<feOffset dy="4.71138"/>
<feGaussianBlur stdDeviation="5.88023"/>
<feColorMatrix type="matrix" values="0 0 0 0 0 0 0 0 0 0 0 0 0 0 0 0 0 0 0.0360506 0"/>
<feBlend mode="normal" in2="effect3_dropShadow_61_660" result="effect4_dropShadow_61_660"/>
<feColorMatrix in="SourceAlpha" type="matrix" values="0 0 0 0 0 0 0 0 0 0 0 0 0 0 0 0 0 0 127 0" result="hardAlpha"/>
<feOffset dy="7.38879"/>
<feGaussianBlur stdDeviation="10.3434"/>
<feColorMatrix type="matrix" values="0 0 0 0 0 0 0 0 0 0 0 0 0 0 0 0 0 0 0.0465262 0"/>
<feBlend mode="normal" in2="effect4_dropShadow_61_660" result="effect5_dropShadow_61_660"/>
<feColorMatrix in="SourceAlpha" type="matrix" values="0 0 0 0 0 0 0 0 0 0 0 0 0 0 0 0 0 0 127 0" result="hardAlpha"/>
<feOffset dy="12.2939"/>
<feGaussianBlur stdDeviation="19.1449"/>
<feColorMatrix type="matrix" values="0 0 0 0 0 0 0 0 0 0 0 0 0 0 0 0 0 0 0.0599798 0"/>
<feBlend mode="normal" in2="effect5_dropShadow_61_660" result="effect6_dropShadow_61_660"/>
<feColorMatrix in="SourceAlpha" type="matrix" values="0 0 0 0 0 0 0 0 0 0 0 0 0 0 0 0 0 0 127 0" result="hardAlpha"/>
<feOffset dy="27"/>
<feGaussianBlur stdDeviation="45.63"/>
<feColorMatrix type="matrix" values="0 0 0 0 0 0 0 0 0 0 0 0 0 0 0 0 0 0 0.09 0"/>
<feBlend mode="normal" in2="effect6_dropShadow_61_660" result="effect7_dropShadow_61_660"/>
<feBlend mode="normal" in="SourceGraphic" in2="effect7_dropShadow_61_660" result="shape"/>
</filter>
</defs>
</svg>
