<svg width="20" height="20" viewBox="0 0 20 20" fill="none" xmlns="http://www.w3.org/2000/svg">
<path fill-rule="evenodd" clip-rule="evenodd" d="M8.46728 0.0802589C5.19705 0.609034 2.38024 2.72701 0.9512 5.73174C-1.36646 10.6049 0.69467 16.4949 5.57543 18.9462C7.76115 20.0439 10.4733 20.275 12.8579 19.5666C15.467 18.7914 17.7327 16.8802 18.9752 14.4063C20.0733 12.2199 20.3034 9.5173 19.5955 7.11932C19.1344 5.55727 18.2711 4.12455 17.064 2.91814C15.6325 1.48736 14.0305 0.613716 12.0297 0.172746C11.1995 -0.0102221 9.32761 -0.0588397 8.46728 0.0802589ZM11.4402 1.95488C12.1349 2.08669 13.0496 2.38495 13.5942 2.6572C14.6927 3.20643 15.831 4.1614 16.5793 5.16144C17.2645 6.07708 17.8732 7.54671 18.0611 8.73922C18.1608 9.37158 18.1459 10.7074 18.0318 11.3613C17.5907 13.891 15.9478 16.1086 13.6835 17.2307C12.3038 17.9144 11.2735 18.1346 9.70445 18.0811C8.89333 18.0535 8.5296 18.0092 8.03199 17.8777C5.07467 17.0957 2.90226 14.9328 2.10973 11.9813C1.89373 11.1767 1.81475 9.68328 1.94214 8.81184C2.44898 5.34554 5.1271 2.58537 8.60102 1.949C9.27157 1.82615 10.7781 1.82929 11.4402 1.95488ZM9.63758 3.78704V4.52613H10.0077H10.3777L10.3587 3.80723L10.3398 3.08833L9.98867 3.06814L9.63758 3.04788V3.78704ZM6.5112 3.9904C6.3917 4.0633 6.29386 4.1408 6.29386 4.16267C6.29386 4.25268 6.93492 5.34742 7.00306 5.37377C7.09 5.4074 7.57918 5.13255 7.55056 5.06614C7.42698 4.77925 6.8546 3.85746 6.80017 3.85766C6.76078 3.85779 6.63071 3.91751 6.5112 3.9904ZM12.7926 4.46387C12.6021 4.79738 12.4463 5.08032 12.4463 5.09256C12.4463 5.12854 12.9167 5.3955 12.9801 5.3955C13.035 5.3955 13.7169 4.25777 13.7169 4.16615C13.7169 4.10977 13.3035 3.85799 13.2105 3.85766C13.1711 3.85752 12.983 4.1303 12.7926 4.46387ZM4.0194 6.48221C3.9465 6.60171 3.88678 6.73185 3.88665 6.77124C3.88645 6.82755 5.03034 7.53548 5.12155 7.53548C5.15753 7.53548 5.42449 7.06509 5.42449 7.00169C5.42449 6.94678 4.28676 6.26487 4.19514 6.26487C4.17133 6.26487 4.09229 6.3627 4.0194 6.48221ZM15.1916 6.59088C14.8808 6.7681 14.6162 6.94397 14.6037 6.98169C14.5752 7.06702 14.8534 7.54839 14.9156 7.52157C15.2025 7.39799 16.1243 6.82561 16.1241 6.77117C16.1238 6.67006 15.8693 6.26446 15.8077 6.26681C15.7796 6.26788 15.5023 6.41366 15.1916 6.59088ZM7.36385 6.59095C7.36385 6.6395 7.5186 7.31573 7.70772 8.09375C7.89684 8.87176 8.11813 9.78593 8.19938 10.1253L8.34724 10.7424L8.21623 11.1284C7.91657 12.0112 8.2807 12.9286 9.11375 13.3901C9.42538 13.5627 9.53787 13.5876 10.0054 13.5876C10.4729 13.5876 10.5854 13.5627 10.897 13.3901C11.9912 12.7839 12.2351 11.4101 11.4112 10.4937C11.1 10.1476 10.8239 9.98221 10.3394 9.85201C10.0783 9.78179 9.95898 9.6564 8.83428 8.2711C7.4431 6.55758 7.36385 6.46703 7.36385 6.59095ZM3.09713 9.95967L3.11733 10.3108L3.83623 10.3298L4.55513 10.3487V9.97867V9.60858H3.81603H3.07687L3.09713 9.95967ZM15.4556 9.97639V10.3487L16.1745 10.3298L16.8934 10.3108V9.97639V9.64202L16.1745 9.62303L15.4556 9.60404V9.97639ZM3.28451 11.7024C3.28451 11.7149 3.35547 11.9335 3.44214 12.1883C4.40198 15.008 7.0357 16.8979 10.0054 16.8979C12.5811 16.8979 14.9413 15.4726 16.1295 13.1997C16.3437 12.7899 16.7263 11.83 16.7263 11.7024C16.7263 11.6898 15.9062 11.6876 14.9039 11.6973L13.0816 11.7151L13.0338 12.149C12.9449 12.9546 12.3563 13.8734 11.6391 14.3262C10.86 14.818 9.79446 14.9263 8.94456 14.6C8.40622 14.3934 7.95161 14.0765 7.64345 13.693C7.31229 13.2809 7.02921 12.622 6.97598 12.1394L6.92917 11.7151L5.10684 11.6973C4.10453 11.6876 3.28451 11.6898 3.28451 11.7024Z" fill="white"/>
</svg>
