<svg width="19" height="21" viewBox="0 0 19 21" fill="none" xmlns="http://www.w3.org/2000/svg">
<path d="M6.64373 19.2821V16.2152C6.64372 15.4381 7.27567 14.8067 8.05844 14.8018H10.9326C11.7189 14.8018 12.3563 15.4346 12.3563 16.2152V19.2732C12.3562 19.9473 12.904 20.4951 13.5829 20.5H15.5438C16.4596 20.5023 17.3388 20.1428 17.9872 19.5007C18.6356 18.8586 19 17.9868 19 17.0775V8.36585C19 7.63139 18.6721 6.93471 18.1046 6.4635L11.443 1.17427C10.2785 0.249123 8.61537 0.279008 7.48539 1.24538L0.967012 6.4635C0.372741 6.92082 0.0175523 7.61956 0 8.36585V17.0686C0 18.9637 1.54738 20.5 3.45617 20.5H5.37229C5.69917 20.5023 6.01349 20.3751 6.24547 20.1464C6.47746 19.9178 6.60793 19.6067 6.60792 19.2821H6.64373Z" fill="#00D154"/>
</svg>
