<svg width="9" height="12" viewBox="0 0 9 12" fill="none" xmlns="http://www.w3.org/2000/svg">
<path d="M8.00393 8.07783C7.33292 9.03749 6.36763 9.52232 5.13432 9.52232C5.08746 9.52232 5.0406 9.52232 4.99375 9.51982C4.74446 9.97216 4.50829 10.4595 4.31336 10.9643C4.27962 11.0518 4.21402 11.1018 4.14655 11.1018C4.11843 11.1018 4.08844 11.0918 4.0622 11.0743C3.96849 11.0118 3.93287 10.8593 3.97973 10.7369C4.08469 10.462 4.2009 10.1946 4.32461 9.93717C4.3396 9.50233 4.289 9.05998 4.19528 8.62014C2.70706 8.35023 1.58995 7.53802 0.879582 6.2085C-0.398714 3.82184 0.0867388 0.657966 0.107356 0.525513C0.127974 0.398059 0.217942 0.315588 0.315408 0.328083C2.16912 0.64797 3.46804 1.58014 4.17841 3.1046C5.2018 5.29882 4.64887 7.94788 4.54016 8.41021V8.41271C4.60388 8.68762 4.65074 8.97001 4.67698 9.24992C4.68636 9.22992 4.6976 9.21243 4.70885 9.19244C4.6901 8.75009 4.67886 6.96823 5.60103 5.57622C6.30765 4.5066 7.3854 3.9418 8.80427 3.89682C8.90361 3.89432 8.98795 3.99678 8.99545 4.12923C8.9992 4.2267 9.10791 6.49839 8.00393 8.07783Z" fill="#00D154"/>
</svg>
