<svg width="18" height="18" viewBox="0 0 18 18" fill="none" xmlns="http://www.w3.org/2000/svg">
<g clip-path="url(#clip0_220_1012)">
<path d="M8.45221 1.42856C6.86996 1.42856 5.32324 1.89775 4.00765 2.7768C2.69206 3.65585 1.66668 4.90528 1.06118 6.36709C0.455676 7.8289 0.297249 9.43743 0.605931 10.9893C0.914612 12.5411 1.67654 13.9666 2.79536 15.0854C3.91418 16.2042 5.33964 16.9662 6.89149 17.2748C8.44334 17.5835 10.0519 17.4251 11.5137 16.8196C12.9755 16.2141 14.2249 15.1887 15.104 13.8731C15.983 12.5575 16.4522 11.0108 16.4522 9.42856C16.4522 7.30683 15.6094 5.27199 14.1091 3.7717C12.6088 2.27141 10.5739 1.42856 8.45221 1.42856ZM11.3613 10.1558H8.45221C8.25933 10.1558 8.07434 10.0792 7.93795 9.94282C7.80156 9.80643 7.72494 9.62144 7.72494 9.42856V5.06492C7.72494 4.87204 7.80156 4.68705 7.93795 4.55066C8.07434 4.41427 8.25933 4.33765 8.45221 4.33765C8.64509 4.33765 8.83008 4.41427 8.96647 4.55066C9.10286 4.68705 9.17948 4.87204 9.17948 5.06492V8.70128H11.3613C11.5542 8.70128 11.7392 8.77791 11.8756 8.9143C12.012 9.05069 12.0886 9.23567 12.0886 9.42856C12.0886 9.62144 12.012 9.80643 11.8756 9.94282C11.7392 10.0792 11.5542 10.1558 11.3613 10.1558Z" fill="#00D154"/>
</g>
<defs>
<clipPath id="clip0_220_1012">
<rect width="17.1429" height="17.1429" fill="white" transform="translate(0.0604706 0.792625)"/>
</clipPath>
</defs>
</svg>
