<svg width="20" height="20" viewBox="0 0 20 20" fill="none" xmlns="http://www.w3.org/2000/svg">
<g clip-path="url(#clip0_297_3846)">
<path fill-rule="evenodd" clip-rule="evenodd" d="M10 0C10.4602 0 10.8333 0.373096 10.8333 0.833333V4.16667C10.8333 4.6269 10.4602 5 10 5C9.53976 5 9.16667 4.6269 9.16667 4.16667V0.833333C9.16667 0.373096 9.53976 0 10 0ZM13.3333 10C13.3333 11.8409 11.8409 13.3333 10 13.3333C8.15905 13.3333 6.66667 11.8409 6.66667 10C6.66667 8.15905 8.15905 6.66667 10 6.66667C11.8409 6.66667 13.3333 8.15905 13.3333 10ZM10.8333 15.8333C10.8333 15.3731 10.4602 15 10 15C9.53976 15 9.16667 15.3731 9.16667 15.8333V19.1667C9.16667 19.6269 9.53976 20 10 20C10.4602 20 10.8333 19.6269 10.8333 19.1667V15.8333ZM2.74408 2.74408C3.06951 2.41864 3.59715 2.41864 3.92259 2.74408L6.27961 5.1011C6.60505 5.42654 6.60505 5.95417 6.27961 6.27961C5.95417 6.60505 5.42654 6.60505 5.1011 6.27961L2.74408 3.92259C2.41864 3.59715 2.41864 3.06951 2.74408 2.74408ZM14.5292 13.3507C14.2038 13.0252 13.6761 13.0252 13.3507 13.3507C13.0252 13.6761 13.0252 14.2038 13.3507 14.5292L15.7077 16.8862C16.0331 17.2117 16.5608 17.2117 16.8862 16.8862C17.2117 16.5608 17.2117 16.0331 16.8862 15.7077L14.5292 13.3507ZM17.2559 2.74408C17.5814 3.06951 17.5814 3.59715 17.2559 3.92259L14.8989 6.27961C14.5735 6.60505 14.0458 6.60505 13.7204 6.27961C13.395 5.95417 13.395 5.42654 13.7204 5.1011L16.0774 2.74408C16.4028 2.41864 16.9305 2.41864 17.2559 2.74408ZM6.64932 14.5292C6.97476 14.2038 6.97476 13.6761 6.64932 13.3507C6.32388 13.0252 5.79625 13.0252 5.47081 13.3507L3.11379 15.7077C2.78835 16.0331 2.78835 16.5608 3.11379 16.8862C3.43922 17.2117 3.96686 17.2117 4.2923 16.8862L6.64932 14.5292ZM0 10C0 9.53976 0.373096 9.16667 0.833333 9.16667H4.16667C4.6269 9.16667 5 9.53976 5 10C5 10.4602 4.6269 10.8333 4.16667 10.8333H0.833333C0.373096 10.8333 0 10.4602 0 10ZM15.8333 9.16667C15.3731 9.16667 15 9.53976 15 10C15 10.4602 15.3731 10.8333 15.8333 10.8333H19.1667C19.6269 10.8333 20 10.4602 20 10C20 9.53976 19.6269 9.16667 19.1667 9.16667H15.8333Z" fill="white"/>
</g>
<defs>
<clipPath id="clip0_297_3846">
<rect width="20" height="20" fill="white"/>
</clipPath>
</defs>
</svg>
