<svg width="20" height="20" viewBox="0 0 20 20" fill="none" xmlns="http://www.w3.org/2000/svg">
<path d="M14.1667 13.3333C14.1667 14.0436 13.9851 14.742 13.6393 15.3624C13.2934 15.9827 12.7947 16.5043 12.1906 16.8777C11.5864 17.2511 10.8968 17.4639 10.1873 17.4958C9.47778 17.5277 8.77188 17.3777 8.13662 17.0601C7.50137 16.7425 6.95785 16.2677 6.55768 15.681C6.1575 15.0942 5.91396 14.4149 5.85018 13.7075C5.7864 13.0002 5.90449 12.2882 6.19324 11.6393C6.48199 10.9904 6.93182 10.4261 7.50001 10V5C7.50001 4.33696 7.7634 3.70107 8.23224 3.23223C8.70108 2.76339 9.33697 2.5 10 2.5C10.6631 2.5 11.2989 2.76339 11.7678 3.23223C12.2366 3.70107 12.5 4.33696 12.5 5V10C13.0175 10.3881 13.4375 10.8914 13.7268 11.4699C14.0161 12.0485 14.1667 12.6865 14.1667 13.3333Z" stroke="white" stroke-width="2" stroke-linecap="round" stroke-linejoin="round"/>
<path d="M10 15C10.9205 15 11.6667 14.2538 11.6667 13.3333C11.6667 12.4128 10.9205 11.6667 10 11.6667C9.07954 11.6667 8.33334 12.4128 8.33334 13.3333C8.33334 14.2538 9.07954 15 10 15Z" fill="white"/>
</svg>
