<svg width="20" height="20" viewBox="0 0 20 20" fill="none" xmlns="http://www.w3.org/2000/svg">
<path d="M8.74042 1.6546C7.52681 1.9842 6.50801 3.1304 6.37301 4.3216L6.32061 4.756H7.07722H7.82641L7.87881 4.5088C8.01361 3.902 8.47821 3.355 9.00261 3.1828C9.15241 3.1304 9.49701 3.1078 9.75921 3.1228C10.3734 3.1602 10.778 3.43 11.0778 3.9992C11.5122 4.8232 11.2502 5.7596 10.4636 6.2316L10.059 6.4788H6.06581H2.07281V7.2654V8.052H5.99081C10.261 8.052 10.3884 8.0444 11.1674 7.6176C12.306 6.9958 12.9952 5.5948 12.793 4.3064C12.486 2.3962 10.5908 1.1602 8.74042 1.6546Z" fill="white"/>
<path d="M15.977 4.31398C15.4226 4.40378 14.6736 4.80838 14.2464 5.24298C13.707 5.78978 13.3174 6.66638 13.31 7.31818V7.52798H14.0516C14.8682 7.52798 14.8156 7.55798 14.9206 7.02598C15.048 6.38178 15.8346 5.80478 16.5612 5.80478C17.58 5.81238 18.3142 6.63638 18.2392 7.67758C18.187 8.38198 17.6926 8.98118 16.9884 9.17598C16.8162 9.22098 13.7596 9.25098 8.46321 9.25098H0.200012V9.99998V10.7492L8.80021 10.7342L17.393 10.7118L17.9024 10.472C19.94 9.50558 20.442 6.90598 18.8914 5.28798C18.3894 4.76358 17.9024 4.48638 17.2282 4.34398C16.6662 4.22418 16.5164 4.21658 15.977 4.31398Z" fill="white"/>
<path d="M2.07281 12.7344V13.521H7.76641C13.9918 13.521 13.7596 13.506 14.2316 13.9554C15.1232 14.802 14.8608 16.3078 13.7446 16.7722C13.5872 16.8396 13.2726 16.8922 13.033 16.8922C12.2314 16.8922 11.6022 16.3752 11.3924 15.5438L11.31 15.2066L10.6132 15.1842C10.2312 15.1766 9.88661 15.1916 9.84901 15.2292C9.74421 15.3342 9.98381 16.3304 10.2162 16.7576C10.853 17.9338 12.2764 18.638 13.5798 18.4132C14.6586 18.226 15.5576 17.5366 16.0296 16.5404C16.2544 16.061 16.2694 15.9786 16.2694 15.207C16.2694 14.4354 16.2544 14.353 16.0296 13.8736C15.745 13.2818 15.1756 12.6524 14.6736 12.3754C13.8794 11.9484 13.932 11.9484 7.75141 11.9484H2.07281V12.7344Z" fill="white"/>
</svg>
