<svg width="25" height="24" viewBox="0 0 25 24" fill="none" xmlns="http://www.w3.org/2000/svg">
<path d="M20.7673 9.85964C20.7673 10.0222 20.6657 10.1684 20.5113 10.2335C20.5032 10.2335 19.4142 10.6926 18.9348 11.8506C18.9023 11.9359 18.0977 13.7928 16.574 14.0326C16.574 14.0326 16.4278 14.0651 16.1799 14.0651C15.6639 14.0651 14.8391 13.935 13.8111 13.3296C12.9626 13.8893 12.2002 14.5696 11.5479 15.349C11.6332 16.0235 11.6901 16.7387 11.7104 17.5025C14.0467 17.5513 16.6675 18.1161 19.3289 19.6601C19.5239 19.7698 19.5889 20.0217 19.4792 20.2127C19.4242 20.3052 19.3353 20.3726 19.2314 20.4007C19.1275 20.4288 19.0167 20.4152 18.9226 20.363C10.9749 15.7635 3.44581 20.3102 3.37268 20.3549C3.28131 20.4056 3.17395 20.4193 3.07279 20.3931C2.97164 20.3669 2.8844 20.3029 2.82911 20.2142C2.77383 20.1255 2.75471 20.019 2.77571 19.9166C2.79672 19.8143 2.85624 19.7239 2.94198 19.6642C2.9948 19.6317 6.30631 17.6244 10.8977 17.5025C10.8778 16.7713 10.8194 16.0416 10.723 15.3165C10.7271 15.3125 10.7271 15.3125 10.723 15.3125C10.5199 13.7847 10.1745 12.4926 9.77223 11.424C7.05801 11.3793 5.82685 10.2863 5.77403 10.2375C3.8887 8.76257 4.21782 5.55264 4.23408 5.41855C4.49818 3.20816 3.21421 1.59101 3.20202 1.57475C3.15223 1.51226 3.12196 1.43648 3.11497 1.35688C3.10798 1.27729 3.1246 1.19739 3.16274 1.12718C3.20088 1.05697 3.25886 0.999544 3.32943 0.962078C3.40001 0.924613 3.48006 0.908765 3.55958 0.916514C12.0354 1.81448 12.0436 8.2628 12.0436 8.32781C12.0517 10.0019 10.8774 11.0745 10.6093 11.294C10.9181 12.1594 11.1944 13.159 11.3894 14.3007C12.072 13.5775 12.7871 13.0208 13.4454 12.5942C13.3682 12.1757 13.356 11.554 13.6973 10.9445C13.742 10.8633 14.8797 8.82352 17.6386 8.82352C18.5325 8.82352 19.5036 9.047 20.5194 9.48176C20.6738 9.54677 20.7713 9.69305 20.7673 9.85964Z" fill="black"/>
</svg>
