<svg width="16" height="16" viewBox="0 0 16 16" fill="none" xmlns="http://www.w3.org/2000/svg">
<path d="M5.13971 5.41289C5.13971 5.54492 5.19216 5.67154 5.28552 5.7649C5.37887 5.85826 5.50549 5.91071 5.63752 5.91071C5.76955 5.91071 5.89617 5.85826 5.98953 5.7649C6.08289 5.67154 6.13533 5.54492 6.13533 5.41289C6.13533 5.28086 6.08289 5.15424 5.98953 5.06089C5.89617 4.96753 5.76955 4.91508 5.63752 4.91508C5.50549 4.91508 5.37887 4.96753 5.28552 5.06089C5.19216 5.15424 5.13971 5.28086 5.13971 5.41289ZM7.95221 0.285706C3.81033 0.285706 0.452209 3.64383 0.452209 7.78571C0.452209 11.9276 3.81033 15.2857 7.95221 15.2857C12.0941 15.2857 15.4522 11.9276 15.4522 7.78571C15.4522 3.64383 12.0941 0.285706 7.95221 0.285706ZM4.20221 5.41289C4.20221 5.03222 4.35343 4.66715 4.6226 4.39797C4.89178 4.1288 5.25685 3.97758 5.63752 3.97758C6.01819 3.97758 6.38327 4.1288 6.65244 4.39797C6.92161 4.66715 7.07283 5.03222 7.07283 5.41289C7.07283 5.79356 6.92161 6.15864 6.65244 6.42781C6.38327 6.69699 6.01819 6.84821 5.63752 6.84821C5.25685 6.84821 4.89178 6.69699 4.6226 6.42781C4.35343 6.15864 4.20221 5.79356 4.20221 5.41289ZM5.47158 10.9301C5.3834 11.0178 5.26408 11.067 5.13971 11.067C5.01534 11.067 4.89602 11.0178 4.80783 10.9301C4.71996 10.8422 4.67059 10.723 4.67059 10.5987C4.67059 10.4744 4.71996 10.3552 4.80783 10.2673L10.4328 4.64227C10.5212 4.55688 10.6396 4.50963 10.7626 4.5107C10.8855 4.51177 11.003 4.56107 11.0899 4.64798C11.1768 4.73489 11.2261 4.85246 11.2272 4.97536C11.2283 5.09827 11.181 5.21667 11.0956 5.30508L5.47158 10.9301ZM10.2669 11.5357C9.88623 11.5357 9.52115 11.3845 9.25198 11.1153C8.9828 10.8461 8.83158 10.4811 8.83158 10.1004C8.83158 9.71972 8.9828 9.35465 9.25198 9.08547C9.52115 8.8163 9.88623 8.66508 10.2669 8.66508C10.6476 8.66508 11.0126 8.8163 11.2818 9.08547C11.551 9.35465 11.7022 9.71972 11.7022 10.1004C11.7022 10.4811 11.551 10.8461 11.2818 11.1153C11.0126 11.3845 10.6476 11.5357 10.2669 11.5357ZM9.76908 10.1004C9.76908 10.1658 9.78196 10.2305 9.80698 10.2909C9.832 10.3513 9.86866 10.4062 9.91489 10.4524C9.96112 10.4986 10.016 10.5353 10.0764 10.5603C10.1368 10.5853 10.2015 10.5982 10.2669 10.5982C10.3323 10.5982 10.397 10.5853 10.4574 10.5603C10.5178 10.5353 10.5727 10.4986 10.6189 10.4524C10.6651 10.4062 10.7018 10.3513 10.7268 10.2909C10.7518 10.2305 10.7647 10.1658 10.7647 10.1004C10.7647 10.035 10.7518 9.97029 10.7268 9.90989C10.7018 9.84949 10.6651 9.79461 10.6189 9.74839C10.5727 9.70216 10.5178 9.66549 10.4574 9.64047C10.397 9.61546 10.3323 9.60258 10.2669 9.60258C10.2015 9.60258 10.1368 9.61546 10.0764 9.64047C10.016 9.66549 9.96112 9.70216 9.91489 9.74839C9.86866 9.79461 9.832 9.84949 9.80698 9.90989C9.78196 9.97029 9.76908 10.035 9.76908 10.1004Z" fill="#00D154"/>
</svg>
