<svg width="19" height="21" viewBox="0 0 19 21" fill="none" xmlns="http://www.w3.org/2000/svg">
<path d="M18.7673 9.85964C18.7673 10.0222 18.6657 10.1684 18.5113 10.2335C18.5032 10.2335 17.4142 10.6926 16.9348 11.8506C16.9023 11.9359 16.0977 13.7928 14.574 14.0326C14.574 14.0326 14.4278 14.0651 14.1799 14.0651C13.6639 14.0651 12.8391 13.935 11.8111 13.3296C10.9626 13.8893 10.2002 14.5696 9.54785 15.349C9.63318 16.0235 9.69006 16.7387 9.71038 17.5025C12.0467 17.5513 14.6675 18.1161 17.3289 19.6601C17.5239 19.7698 17.5889 20.0217 17.4792 20.2127C17.4242 20.3052 17.3353 20.3726 17.2314 20.4007C17.1275 20.4288 17.0167 20.4152 16.9226 20.363C8.97494 15.7635 1.44581 20.3102 1.37268 20.3549C1.28131 20.4056 1.17395 20.4193 1.07279 20.3931C0.971636 20.3669 0.884402 20.3029 0.829115 20.2142C0.773827 20.1255 0.75471 20.019 0.775714 19.9166C0.796718 19.8143 0.856237 19.7239 0.941975 19.6642C0.994797 19.6317 4.30631 17.6244 8.89774 17.5025C8.87776 16.7713 8.81944 16.0416 8.72302 15.3165C8.72708 15.3125 8.72708 15.3125 8.72302 15.3125C8.51986 13.7847 8.17449 12.4926 7.77223 11.424C5.05801 11.3793 3.82685 10.2863 3.77403 10.2375C1.8887 8.76257 2.21782 5.55264 2.23408 5.41855C2.49818 3.20816 1.21421 1.59101 1.20202 1.57475C1.15223 1.51226 1.12196 1.43648 1.11497 1.35688C1.10798 1.27729 1.1246 1.19739 1.16274 1.12718C1.20088 1.05697 1.25886 0.999544 1.32943 0.962078C1.40001 0.924613 1.48006 0.908765 1.55958 0.916514C10.0354 1.81448 10.0436 8.2628 10.0436 8.32781C10.0517 10.0019 8.87742 11.0745 8.60925 11.294C8.91805 12.1594 9.19435 13.159 9.38939 14.3007C10.072 13.5775 10.7871 13.0208 11.4454 12.5942C11.3682 12.1757 11.356 11.554 11.6973 10.9445C11.742 10.8633 12.8797 8.82352 15.6386 8.82352C16.5325 8.82352 17.5036 9.047 18.5194 9.48176C18.6738 9.54677 18.7713 9.69305 18.7673 9.85964Z" fill="black"/>
</svg>
